<svg version="1.1" id="logo" xmlns="http://www.w3.org/2000/svg" xmlns:xlink="http://www.w3.org/1999/xlink" x="0px" y="0px"
	 width="382.825px" height="450px" viewBox="288.587 10.728 382.825 450" enable-background="new 288.587 10.728 382.825 450"
	 xml:space="preserve">
<g id="logo-name">
	<path fill="#FFFFFF" d="M413.978,144.444c0,5.742-1.846,10.723-5.537,14.941c-3.262,3.77-7.842,5.752-13.739,5.946
		c-1.134,0.039-4.248,0.06-9.347,0.06c-0.957,0-2.397-0.029-4.32-0.088c-1.925-0.06-3.365-0.089-4.321-0.089
		c-0.567,0-0.851-0.224-0.851-0.674c0-2.147,0.083-5.376,0.249-9.683s0.249-7.534,0.249-9.684c0-2.245-0.083-5.609-0.249-10.093
		c-0.166-4.481-0.249-7.837-0.249-10.063c0-0.41,0.283-0.654,0.851-0.732c1.387-0.156,3.662-0.233,6.826-0.233
		c6.016,0,9.912,0.088,11.688,0.264c4.629,0.469,8.251,1.641,10.869,3.516c2.461,1.758,4.404,4.22,5.83,7.383
		C413.293,138.204,413.978,141.28,413.978,144.444z M402.757,144.444c0-3.3-0.986-5.996-2.959-8.086
		c-1.992-2.168-4.629-3.252-7.91-3.252c-3.008,0-4.512,0.399-4.512,1.201c0,1.152-0.021,2.886-0.06,5.199
		c-0.04,2.314-0.059,4.049-0.059,5.2c0,1.133,0.019,2.837,0.059,5.112c0.039,2.275,0.06,3.989,0.06,5.142
		c0,0.84,1.563,1.261,4.688,1.261c3.379,0,6.035-1.123,7.969-3.369C401.849,150.724,402.757,147.921,402.757,144.444z"/>
	<path fill="#FFFFFF" d="M457.16,164.483c0,0.352-0.244,0.596-0.731,0.731c-0.586,0.156-2.402,0.234-5.449,0.234
		c-2.793,0-4.59-0.078-5.391-0.234c-0.664-0.136-1.084-0.575-1.261-1.317c-0.664-2.813-1.182-4.316-1.553-4.512
		c-0.313-0.137-2.93-0.205-7.852-0.205c-3.321,0-5.088,0.088-5.304,0.264c-0.333,0.313-0.702,1.358-1.112,3.135
		c-0.371,1.622-0.82,2.5-1.349,2.637c-0.664,0.156-2.891,0.234-6.68,0.234c-2.987,0-4.481-0.283-4.481-0.85
		c0-0.509,2.207-6.748,6.62-18.722c4.785-12.948,7.384-20.067,7.793-21.356c0.234-0.742,0.509-1.113,0.82-1.113
		c0.527,0,1.343,0.049,2.446,0.146c1.103,0.098,1.929,0.146,2.476,0.146c0.527,0,1.305-0.034,2.329-0.103
		c1.025-0.068,1.792-0.104,2.3-0.104c0.371,0,0.713,0.322,1.025,0.967c0.957,2.052,3.75,9.082,8.379,21.095
		C454.836,157.647,457.16,163.956,457.16,164.483z M436.39,137.794c-0.41,0.86-1.104,2.726-2.08,5.597
		c-1.055,3.047-1.582,4.834-1.582,5.36c0,0.353,0.586,0.547,1.758,0.586c0.605,0.04,1.602,0.06,2.988,0.06
		c1.289,0,2.002-0.156,2.139-0.469c0.039-0.099,0.06-0.234,0.06-0.41c0-0.646-0.45-2.421-1.349-5.332
		C437.444,140.372,436.8,138.575,436.39,137.794z"/>
	<path fill="#FFFFFF" d="M499.35,125.021c0,2.227-0.094,5.57-0.279,10.034c-0.186,4.463-0.276,7.817-0.276,10.063v19.307
		c0,0.527-0.283,0.791-0.851,0.791c-0.469,0-1.178,0.02-2.125,0.06c-0.947,0.039-1.654,0.059-2.123,0.059
		c-0.51,0-1.271-0.04-2.285-0.116c-1.016-0.078-1.776-0.117-2.285-0.117c-0.352,0-0.772-0.322-1.26-0.968
		c-1.406-1.894-4.57-6.094-9.493-12.598c-1.348-1.815-3.397-4.492-6.151-8.027c-0.078-0.116-0.226-0.233-0.439-0.352
		c-0.156,0.137-0.233,0.352-0.233,0.646c0,2.266,0.063,5.664,0.189,10.194c0.127,4.531,0.19,7.931,0.19,10.195
		c0,0.684-0.265,1.024-0.791,1.024H461c-0.567,0-0.851-0.303-0.851-0.907c0-2.109,0.104-5.292,0.308-9.552
		c0.205-4.258,0.309-7.45,0.309-9.579c0-2.246-0.093-5.605-0.278-10.078s-0.278-7.822-0.278-10.049c0-0.43,0.382-0.646,1.144-0.646
		c1.132,0,2.529-0.078,4.188-0.234c0.392-0.039,1.162-0.166,2.314-0.381c0.977-0.176,1.747-0.264,2.314-0.264
		c0.233,0,0.596,0.333,1.084,0.996l10.928,14.971c0.977,1.349,2.45,3.321,4.424,5.918c0.487,0.605,0.909,0.908,1.261,0.908
		c0.252,0,0.382-0.762,0.382-2.285c0-2.051-0.113-5.137-0.339-9.258c-0.225-4.121-0.336-7.217-0.336-9.287
		c0-0.722,0.205-1.084,0.615-1.084c1.172,0,2.939-0.048,5.303-0.146c2.361-0.099,4.132-0.146,5.304-0.146
		C499.161,124.112,499.35,124.416,499.35,125.021z"/>
	<path fill="#FFFFFF" d="M516.693,143.565c0,2.305,0.06,5.771,0.176,10.399c0.117,4.63,0.177,8.097,0.177,10.4
		c0,0.391-0.088,0.635-0.265,0.732c-0.041,0.02-0.293,0.059-0.762,0.116c-1.271,0.156-2.971,0.234-5.098,0.234
		c-2.854,0-4.67-0.078-5.449-0.234c-0.568-0.116-0.851-0.42-0.851-0.907c0,0.313,0.089-1.406,0.265-5.156
		c0.352-7.91,0.526-13.105,0.526-15.586c0-2.09-0.069-5.226-0.204-9.404c-0.138-4.179-0.205-7.313-0.205-9.404
		c0-0.429,0.223-0.645,0.674-0.645c0.604,0,1.518,0.029,2.738,0.088c1.22,0.059,2.135,0.088,2.739,0.088s1.498-0.029,2.681-0.088
		c1.182-0.059,2.075-0.088,2.682-0.088c0.566,0,0.85,0.215,0.85,0.645c0,2.091-0.112,5.226-0.338,9.404
		C516.805,138.341,516.693,141.476,516.693,143.565z"/>
	<path fill="#FFFFFF" d="M552.67,156.104c0,0.84-0.166,2.383-0.498,4.629c-0.353,2.441-0.664,3.896-0.938,4.365
		c-0.233,0.371-0.557,0.557-0.967,0.557c-0.176,0-0.469-0.029-0.879-0.088c-1.426-0.195-5.586-0.293-12.48-0.293
		c-1.506,0-3.739-0.01-6.709-0.029c-2.971-0.02-5.196-0.029-6.68-0.029c-0.646,0-0.967-0.282-0.967-0.85
		c0-2.187,0.121-5.474,0.365-9.858c0.243-4.384,0.366-7.671,0.366-9.857c0-2.228-0.116-6.376-0.352-12.451
		c-0.059-1.563-0.166-3.896-0.322-7.002l-0.029-0.41c-0.041-0.449,0.205-0.674,0.732-0.674c1.445,0,3.617,0.04,6.518,0.117
		c2.9,0.078,5.072,0.117,6.521,0.117c1.424,0,3.574-0.039,6.445-0.117s5.02-0.117,6.444-0.117c1.015,0,1.601,0.381,1.759,1.143
		c0.098,0.45,0.247,1.813,0.452,4.087c0.205,2.275,0.31,3.658,0.31,4.146c0,0.41-0.195,0.615-0.586,0.615
		c-0.117,0-0.322-0.01-0.615-0.029c-5.197-0.429-9.863-0.645-14.004-0.645c-1.037,0-1.67,0.244-1.904,0.731
		c-0.1,0.234-0.146,0.986-0.146,2.256c0,1.329,0.192,2.208,0.586,2.638c0.332,0.37,0.967,0.557,1.904,0.557
		c0.192,0,0.573-0.015,1.143-0.044c0.566-0.029,1.035-0.044,1.406-0.044c2.461,0,4.951-0.068,7.471-0.205
		c0.215-0.02,0.75-0.068,1.611-0.146c0.662-0.077,1.188-0.116,1.582-0.116c0.469,0,0.703,0.225,0.703,0.674
		c0-0.41-0.177,1.084-0.527,4.481c-0.158,1.563-0.234,3.125-0.234,4.688c0,0.391-0.283,0.586-0.85,0.586l-2.637-0.293
		c-1.113-0.117-3.652-0.176-7.617-0.176h-3.105c-0.803,0-1.271,0.194-1.406,0.586c-0.02,0.098-0.028,0.703-0.028,1.815
		c0,1.484,0.098,2.442,0.293,2.871c0.332,0.743,1.582,1.183,3.75,1.318c-0.041,0,1.387,0,4.276,0c1.035,0,2.572-0.092,4.613-0.278
		c2.041-0.186,3.57-0.278,4.586-0.278C552.452,155.05,552.67,155.401,552.67,156.104z"/>
	<path fill="#FFFFFF" d="M583.49,165.714c-1.682,0-3.867-0.04-6.563-0.116c-3.517-0.078-5.703-0.127-6.563-0.146l-8.76-0.117
		c-0.879,0.02-2.139-0.02-3.779-0.117c-0.567-0.098-0.85-0.399-0.85-0.907c0-2.128,0.033-5.317,0.102-9.565
		c0.069-4.248,0.104-7.437,0.104-9.564c0-2.267-0.07-5.659-0.205-10.182c-0.137-4.521-0.205-7.915-0.205-10.181
		c0-0.429,0.293-0.646,0.879-0.646s1.459,0.029,2.621,0.088c1.162,0.06,2.025,0.089,2.594,0.089c0.646,0,1.601-0.034,2.871-0.104
		c1.271-0.067,2.228-0.103,2.871-0.103c0.293,0,0.428,0.186,0.41,0.557l-0.029,0.381c-0.233,3.672-0.498,9.189-0.791,16.553
		l-0.029,7.734c0,2.5,0.011,4.326,0.029,5.479c0.019,0.233,0.039,0.469,0.06,0.702c0.018,0.234,0.164,0.382,0.438,0.439
		c0.019,0,0.273,0,0.762,0c1.759,0,4.39-0.092,7.896-0.278c3.506-0.186,6.139-0.277,7.896-0.277c0.527,0,0.791,0.225,0.791,0.674
		c0,3.34-0.245,6.221-0.731,8.643c-0.1,0.508-0.305,0.811-0.615,0.908C584.592,165.694,584.193,165.714,583.49,165.714z"/>
	<path fill="#FFFFFF" d="M368.362,236.278c0.039,0.527-0.233,0.791-0.819,0.791c-0.371,0-1.44-0.215-3.208-0.646
		c-1.769-0.429-2.856-0.722-3.268-0.879c-4.083,1.603-7.998,2.402-11.748,2.402c-6.034,0-10.985-2.011-14.854-6.035
		c-3.828-3.965-5.742-8.975-5.742-15.029c0-6.19,1.855-11.327,5.566-15.409c3.828-4.22,8.799-6.328,14.912-6.328
		c2.969,0,5.761,0.566,8.379,1.699c2.832,1.25,5.058,3.008,6.68,5.272c0.332,0.469,0.498,0.801,0.498,0.996
		c0,0.625-0.875,2.026-2.622,4.204c-1.748,2.178-2.876,3.267-3.384,3.267c-0.117,0-0.567-0.399-1.349-1.201
		c-0.957-0.957-1.934-1.698-2.93-2.227c-1.484-0.801-3.125-1.201-4.922-1.201c-2.93,0-5.254,1.094-6.973,3.281
		c-1.603,2.012-2.402,4.521-2.402,7.529c0,3.184,0.83,5.702,2.49,7.559c1.718,1.915,4.149,2.871,7.295,2.871
		c1.992,0,4.219-0.498,6.68-1.494c-0.059-0.645-0.234-2.285-0.527-4.922c-0.254-2.031-0.381-3.672-0.381-4.922
		c0-0.371,0.127-0.596,0.381-0.674c0.099-0.039,0.254-0.06,0.47-0.06c0.565,0,1.421,0.055,2.563,0.161
		c1.144,0.107,2.007,0.161,2.593,0.161c0.625,0,1.563-0.044,2.813-0.132s2.187-0.132,2.813-0.132c0.488,0,0.732,0.321,0.732,0.967
		c0,0.938-0.054,2.354-0.161,4.248c-0.106,1.895-0.161,3.311-0.161,4.248c0,2.52,0.187,6.289,0.558,11.309L368.362,236.278z"/>
	<path fill="#FFFFFF" d="M413.157,216.708c0,6.095-1.944,11.202-5.83,15.322c-3.966,4.18-8.984,6.27-15.06,6.27
		c-6.035,0-11.045-2.108-15.028-6.327c-3.907-4.121-5.859-9.209-5.859-15.265c0-6.074,1.953-11.181,5.859-15.321
		c3.983-4.238,8.993-6.357,15.028-6.357c5.996,0,10.996,2.12,15,6.357C411.194,205.565,413.157,210.673,413.157,216.708z
		 M402.054,216.649c0-2.93-0.889-5.42-2.666-7.471c-1.855-2.148-4.229-3.224-7.119-3.224c-2.754,0-5.088,1.113-7.002,3.34
		c-1.855,2.149-2.783,4.619-2.783,7.412c0,2.988,0.869,5.479,2.607,7.472c1.835,2.09,4.229,3.135,7.178,3.135
		c2.754,0,5.099-1.104,7.031-3.312C401.135,221.894,402.054,219.443,402.054,216.649z"/>
	<path fill="#FFFFFF" d="M456.722,197.021c0,2.227-0.093,5.57-0.278,10.034c-0.186,4.463-0.278,7.817-0.278,10.063v19.307
		c0,0.527-0.282,0.791-0.85,0.791c-0.469,0-1.177,0.02-2.124,0.06c-0.948,0.039-1.655,0.059-2.124,0.059
		c-0.508,0-1.27-0.04-2.285-0.117s-1.776-0.116-2.285-0.116c-0.352,0-0.771-0.322-1.26-0.968c-1.406-1.894-4.57-6.094-9.492-12.598
		c-1.348-1.815-3.397-4.492-6.151-8.027c-0.078-0.116-0.226-0.233-0.439-0.352c-0.157,0.137-0.233,0.352-0.233,0.645
		c0,2.267,0.063,5.665,0.189,10.195c0.127,4.531,0.19,7.93,0.19,10.195c0,0.684-0.265,1.024-0.791,1.024h-10.137
		c-0.567,0-0.851-0.303-0.851-0.907c0-2.109,0.104-5.292,0.309-9.552c0.205-4.258,0.308-7.45,0.308-9.579
		c0-2.246-0.093-5.605-0.278-10.078s-0.277-7.822-0.277-10.05c0-0.429,0.381-0.645,1.143-0.645c1.132,0,2.529-0.078,4.188-0.234
		c0.392-0.039,1.162-0.166,2.314-0.381c0.977-0.176,1.748-0.264,2.313-0.264c0.234,0,0.597,0.333,1.085,0.996l10.928,14.971
		c0.977,1.348,2.451,3.321,4.424,5.918c0.488,0.605,0.908,0.908,1.26,0.908c0.253,0,0.381-0.762,0.381-2.285
		c0-2.051-0.112-5.137-0.337-9.258s-0.337-7.217-0.337-9.287c0-0.722,0.205-1.084,0.615-1.084c1.172,0,2.938-0.048,5.303-0.146
		c2.363-0.098,4.131-0.146,5.303-0.146C456.535,196.112,456.722,196.416,456.722,197.021z"/>
	<path fill="#FFFFFF" d="M488.568,237.685c-1.154,0-2.883-0.06-5.187-0.177c-2.306-0.116-4.033-0.176-5.187-0.176
		c-1.641,0-4.092-0.02-7.354-0.059c-3.264-0.04-5.714-0.06-7.354-0.06c-0.703,0-1.104-0.224-1.201-0.674
		c-0.04-1.25-0.233-3.104-0.586-5.565c-0.233-0.957-0.352-1.494-0.352-1.611c0-0.098,2.392-3.882,7.178-11.353
		c4.785-7.472,7.178-11.489,7.178-12.057c0-0.312-0.254-0.469-0.762-0.469c-1.367,0-3.433,0.04-6.196,0.117
		c-2.764,0.078-4.839,0.117-6.226,0.117c-0.43,0-0.645-0.225-0.645-0.675c0-0.722,0.22-2.128,0.658-4.219
		c0.439-2.09,0.659-3.604,0.659-4.541c0-0.312,0.265-0.469,0.791-0.469c2.695,0,6.743,0.059,12.145,0.176
		c5.4,0.117,9.447,0.176,12.145,0.176c0.41,0,0.674,0.226,0.791,0.675c0.352,1.563,0.527,3.799,0.527,6.709
		c0,0.352-0.177,0.791-0.527,1.317c-1.229,1.777-3.82,5.703-7.765,11.777c-4.493,6.934-6.738,10.565-6.738,10.897
		c0,0.157,0.165,0.234,0.498,0.234c3.965,0,7.012-0.078,9.141-0.234c0.43-0.019,1.366-0.136,2.813-0.352
		c1.23-0.195,2.14-0.293,2.726-0.293c0.273,0,0.41,0.205,0.41,0.615c0,3.184-0.283,6.356-0.85,9.521
		C489.223,237.469,488.979,237.685,488.568,237.685z"/>
	<path fill="#FFFFFF" d="M533.217,236.483c0,0.352-0.246,0.596-0.732,0.731c-0.586,0.156-2.402,0.234-5.449,0.234
		c-2.795,0-4.59-0.078-5.391-0.234c-0.664-0.136-1.084-0.575-1.26-1.317c-0.664-2.813-1.185-4.316-1.553-4.512
		c-0.313-0.137-2.931-0.205-7.853-0.205c-3.322,0-5.088,0.088-5.303,0.264c-0.334,0.313-0.703,1.358-1.113,3.135
		c-0.371,1.622-0.82,2.5-1.348,2.637c-0.664,0.156-2.892,0.234-6.681,0.234c-2.987,0-4.481-0.283-4.481-0.85
		c0-0.509,2.207-6.748,6.621-18.722c4.785-12.948,7.383-20.067,7.793-21.356c0.233-0.742,0.508-1.113,0.819-1.113
		c0.527,0,1.343,0.049,2.445,0.146c1.104,0.098,1.93,0.146,2.478,0.146c0.526,0,1.303-0.034,2.327-0.103
		c1.025-0.068,1.791-0.104,2.302-0.104c0.369,0,0.713,0.322,1.024,0.967c0.955,2.052,3.75,9.082,8.379,21.095
		C530.891,229.647,533.217,235.956,533.217,236.483z M507.025,195.233c-0.371,0.02-0.557-0.187-0.557-0.615
		c0-0.156,0.018-0.399,0.059-0.731c0.039-0.332,0.06-0.587,0.06-0.763c0-0.233-0.035-0.596-0.104-1.084
		c-0.068-0.487-0.102-0.85-0.102-1.084c0-0.272,0.204-0.487,0.614-0.645c0.955-0.371,2.813-1.337,5.566-2.9
		c1.189-0.858,2.998-2.139,5.42-3.838c0.117-0.098,0.311-0.195,0.586-0.293c0.135,0.04,0.303,0.137,0.498,0.293
		c0.449,0.469,1.16,1.133,2.139,1.992c0.545,0.313,1.349,0.811,2.402,1.494c0.311,0.215,0.469,0.41,0.469,0.586
		c0,0.157-0.137,0.361-0.41,0.615c-1.719,1.621-4.297,3.159-7.733,4.613c-3.439,1.455-6.318,2.241-8.644,2.358L507.025,195.233
		L507.025,195.233z M512.445,209.794c-0.41,0.86-1.104,2.726-2.08,5.597c-1.055,3.047-1.582,4.834-1.582,5.36
		c0,0.353,0.586,0.547,1.759,0.586c0.604,0.04,1.6,0.06,2.987,0.06c1.289,0,2.002-0.156,2.14-0.469
		c0.038-0.099,0.059-0.234,0.059-0.41c0-0.646-0.451-2.421-1.348-5.332C513.5,212.372,512.855,210.575,512.445,209.794z"/>
	<path fill="#FFFFFF" d="M563.129,237.714c-1.683,0-3.867-0.04-6.563-0.116c-3.516-0.078-5.703-0.127-6.563-0.146l-8.761-0.117
		c-0.879,0.02-2.139-0.02-3.778-0.117c-0.568-0.098-0.851-0.399-0.851-0.907c0-2.128,0.033-5.317,0.103-9.565
		c0.068-4.248,0.104-7.437,0.104-9.564c0-2.267-0.069-5.659-0.205-10.182c-0.137-4.521-0.205-7.915-0.205-10.181
		c0-0.429,0.293-0.646,0.88-0.646c0.586,0,1.459,0.029,2.62,0.088c1.162,0.06,2.025,0.089,2.595,0.089
		c0.645,0,1.6-0.034,2.871-0.104c1.27-0.067,2.227-0.103,2.87-0.103c0.293,0,0.429,0.186,0.41,0.557l-0.028,0.381
		c-0.234,3.672-0.498,9.189-0.791,16.553l-0.029,7.734c0,2.5,0.01,4.326,0.029,5.479c0.018,0.233,0.038,0.469,0.059,0.702
		c0.018,0.234,0.164,0.382,0.439,0.439c0.018,0,0.272,0,0.762,0c1.758,0,4.389-0.092,7.895-0.278
		c3.506-0.186,6.14-0.277,7.896-0.277c0.526,0,0.791,0.225,0.791,0.674c0,3.34-0.246,6.221-0.732,8.643
		c-0.1,0.508-0.305,0.811-0.615,0.908C564.23,237.694,563.831,237.714,563.129,237.714z"/>
	<path fill="#FFFFFF" d="M599.018,228.104c0,0.84-0.166,2.383-0.498,4.629c-0.352,2.441-0.664,3.896-0.938,4.365
		c-0.234,0.371-0.558,0.557-0.968,0.557c-0.176,0-0.469-0.029-0.879-0.088c-1.426-0.195-5.586-0.293-12.479-0.293
		c-1.506,0-3.74-0.01-6.709-0.029c-2.972-0.02-5.197-0.029-6.681-0.029c-0.645,0-0.967-0.282-0.967-0.85
		c0-2.187,0.121-5.474,0.365-9.858c0.244-4.384,0.367-7.671,0.367-9.857c0-2.228-0.117-6.376-0.353-12.451
		c-0.059-1.563-0.166-3.896-0.321-7.002l-0.029-0.41c-0.041-0.449,0.205-0.674,0.731-0.674c1.445,0,3.617,0.04,6.519,0.117
		c2.899,0.078,5.072,0.117,6.52,0.117c1.425,0,3.574-0.039,6.445-0.117s5.021-0.117,6.445-0.117c1.014,0,1.6,0.381,1.758,1.143
		c0.098,0.45,0.248,1.813,0.453,4.088c0.205,2.274,0.309,3.657,0.309,4.146c0,0.41-0.194,0.615-0.586,0.615
		c-0.117,0-0.322-0.01-0.615-0.029c-5.196-0.429-9.862-0.645-14.004-0.645c-1.037,0-1.67,0.244-1.903,0.731
		c-0.101,0.234-0.146,0.986-0.146,2.256c0,1.329,0.193,2.208,0.586,2.638c0.332,0.37,0.967,0.557,1.904,0.557
		c0.193,0,0.574-0.015,1.143-0.044c0.566-0.029,1.035-0.044,1.406-0.044c2.461,0,4.951-0.068,7.471-0.205
		c0.216-0.02,0.75-0.068,1.611-0.146c0.662-0.077,1.189-0.116,1.582-0.116c0.469,0,0.703,0.225,0.703,0.674
		c0-0.41-0.176,1.084-0.527,4.481c-0.158,1.563-0.233,3.125-0.233,4.688c0,0.391-0.283,0.586-0.851,0.586l-2.637-0.293
		c-1.113-0.117-3.652-0.176-7.617-0.176h-3.104c-0.804,0-1.271,0.194-1.406,0.586c-0.021,0.098-0.029,0.703-0.029,1.815
		c0,1.484,0.099,2.442,0.293,2.871c0.332,0.743,1.582,1.183,3.75,1.318c-0.041,0,1.388,0,4.277,0c1.035,0,2.572-0.092,4.613-0.278
		c2.041-0.186,3.569-0.278,4.586-0.278C598.801,227.05,599.018,227.401,599.018,228.104z"/>
	<path fill="#FFFFFF" d="M629.311,237.685c-1.154,0-2.883-0.06-5.186-0.177c-2.306-0.116-4.033-0.176-5.187-0.176
		c-1.641,0-4.092-0.02-7.354-0.059c-3.265-0.04-5.714-0.06-7.354-0.06c-0.703,0-1.104-0.224-1.201-0.674
		c-0.041-1.25-0.233-3.104-0.586-5.565c-0.233-0.957-0.352-1.494-0.352-1.611c0-0.098,2.391-3.882,7.178-11.353
		c4.785-7.472,7.178-11.489,7.178-12.057c0-0.312-0.254-0.469-0.762-0.469c-1.367,0-3.434,0.04-6.197,0.117
		c-2.764,0.078-4.838,0.117-6.225,0.117c-0.43,0-0.646-0.225-0.646-0.675c0-0.722,0.22-2.128,0.658-4.219
		c0.439-2.09,0.66-3.604,0.66-4.541c0-0.312,0.264-0.469,0.791-0.469c2.695,0,6.742,0.059,12.143,0.176
		c5.401,0.117,9.449,0.176,12.146,0.176c0.41,0,0.674,0.226,0.791,0.675c0.352,1.563,0.527,3.799,0.527,6.709
		c0,0.352-0.177,0.791-0.527,1.317c-1.23,1.777-3.82,5.703-7.764,11.777c-4.494,6.934-6.738,10.565-6.738,10.897
		c0,0.157,0.164,0.234,0.498,0.234c3.965,0,7.012-0.078,9.141-0.234c0.428-0.019,1.365-0.136,2.813-0.352
		c1.229-0.195,2.139-0.293,2.725-0.293c0.273,0,0.41,0.205,0.41,0.615c0,3.184-0.283,6.356-0.851,9.521
		C629.965,237.469,629.721,237.685,629.311,237.685z"/>
	<path fill="#FFFFFF" d="M429.344,308.924c0,0.137-0.195,0.233-0.586,0.293c-0.743,0.117-2.607,0.176-5.597,0.176
		c-2.559,0-4.297-0.059-5.215-0.176c-0.43-0.06-0.674-0.106-0.731-0.146c-0.117-0.059-0.254-0.253-0.41-0.586
		c-0.293-0.762-0.723-1.894-1.289-3.397c-0.762-1.952-1.953-4.834-3.574-8.644c-0.352-0.762-1.162-1.182-2.432-1.26
		c0.586,0.04-0.42,0.059-3.018,0.059c-0.294,0-0.439,0.498-0.439,1.494c0,1.329,0.122,3.312,0.366,5.947
		c0.244,2.637,0.366,4.619,0.366,5.947c0,0.333-0.089,0.526-0.265,0.586c-0.273,0.019-0.547,0.039-0.819,0.059
		c-1.153,0.077-2.949,0.117-5.392,0.117c-2.793,0-4.473-0.06-5.039-0.176c-0.566-0.117-0.85-0.42-0.85-0.908
		c0-2.148,0.103-5.392,0.308-9.728s0.309-7.588,0.309-9.756c0-8.262-0.187-14.707-0.558-19.336l-0.028-0.41
		c-0.021-0.332,0.287-0.557,0.923-0.674c0.634-0.117,3.618-0.234,8.95-0.353c3.612-0.077,6.493-0.116,8.643-0.116
		c4.453,0,8.086,1.006,10.897,3.018c3.184,2.266,4.775,5.537,4.775,9.814c0,2.853-0.41,5.127-1.23,6.825
		c-0.819,1.699-2.334,3.352-4.541,4.951c-0.449,0.313-0.674,0.605-0.674,0.879c0-0.019,1.191,2.433,3.574,7.354
		S429.344,308.415,429.344,308.924z M417.039,282.644c0-2.383-0.781-4.033-2.345-4.951c-1.211-0.703-3.104-1.055-5.684-1.055
		c-1.856,0-2.842,0.282-2.959,0.85c-0.117,0.664-0.176,2.578-0.176,5.742c0,0.45,0.01,1.113,0.028,1.992
		c0.02,0.879,0.029,1.533,0.029,1.963c0,0.099,0.313,0.194,0.938,0.293c1.19,0.176,2.44,0.264,3.75,0.264
		C414.9,287.741,417.039,286.042,417.039,282.644z"/>
	<path fill="#FFFFFF" d="M462.654,300.104c0,0.84-0.166,2.384-0.498,4.629c-0.352,2.442-0.664,3.896-0.938,4.365
		c-0.234,0.37-0.558,0.557-0.968,0.557c-0.176,0-0.469-0.028-0.879-0.088c-1.426-0.195-5.586-0.293-12.479-0.293
		c-1.504,0-3.74-0.011-6.709-0.029c-2.969-0.02-5.196-0.028-6.68-0.028c-0.646,0-0.968-0.282-0.968-0.851
		c0-2.187,0.122-5.474,0.366-9.857c0.244-4.386,0.366-7.672,0.366-9.858c0-2.228-0.117-6.376-0.353-12.451
		c-0.059-1.563-0.165-3.896-0.321-7.002l-0.029-0.41c-0.04-0.449,0.205-0.674,0.732-0.674c1.444,0,3.617,0.04,6.519,0.117
		c2.9,0.078,5.073,0.117,6.52,0.117c1.425,0,3.573-0.039,6.444-0.117s5.021-0.117,6.445-0.117c1.015,0,1.601,0.381,1.758,1.143
		c0.098,0.45,0.249,1.813,0.454,4.087c0.205,2.275,0.308,3.658,0.308,4.146c0,0.41-0.194,0.615-0.586,0.615
		c-0.116,0-0.321-0.011-0.614-0.029c-5.196-0.429-9.863-0.645-14.004-0.645c-1.036,0-1.671,0.244-1.904,0.731
		c-0.099,0.234-0.146,0.986-0.146,2.256c0,1.329,0.195,2.208,0.586,2.638c0.332,0.37,0.968,0.557,1.904,0.557
		c0.195,0,0.576-0.015,1.144-0.044c0.565-0.029,1.034-0.044,1.405-0.044c2.461,0,4.951-0.068,7.472-0.205
		c0.215-0.02,0.751-0.068,1.61-0.146c0.664-0.076,1.191-0.116,1.582-0.116c0.47,0,0.703,0.225,0.703,0.674
		c0-0.41-0.176,1.084-0.527,4.481c-0.156,1.563-0.233,3.125-0.233,4.688c0,0.392-0.283,0.586-0.851,0.586l-2.637-0.293
		c-1.113-0.117-3.652-0.176-7.617-0.176h-3.104c-0.801,0-1.271,0.194-1.406,0.586c-0.02,0.099-0.029,0.703-0.029,1.815
		c0,1.484,0.099,2.442,0.293,2.871c0.332,0.743,1.582,1.184,3.75,1.318c-0.04,0,1.388,0,4.277,0c1.035,0,2.573-0.093,4.614-0.278
		s3.568-0.277,4.585-0.277C462.439,299.051,462.654,299.401,462.654,300.104z"/>
	<path fill="#FFFFFF" d="M478.445,287.565c0,2.305,0.06,5.771,0.176,10.4c0.117,4.629,0.177,8.097,0.177,10.399
		c0,0.393-0.088,0.635-0.265,0.732c-0.039,0.02-0.293,0.059-0.762,0.117c-1.271,0.155-2.969,0.233-5.098,0.233
		c-2.853,0-4.668-0.078-5.449-0.233c-0.567-0.117-0.851-0.42-0.851-0.908c0,0.313,0.089-1.406,0.265-5.156
		c0.352-7.91,0.526-13.105,0.526-15.586c0-2.09-0.068-5.226-0.204-9.404c-0.138-4.179-0.205-7.313-0.205-9.404
		c0-0.429,0.224-0.645,0.674-0.645c0.604,0,1.519,0.029,2.739,0.088c1.22,0.059,2.134,0.088,2.738,0.088
		c0.605,0,1.498-0.028,2.682-0.088c1.182-0.059,2.074-0.088,2.681-0.088c0.566,0,0.85,0.215,0.85,0.645
		c0,2.091-0.112,5.226-0.337,9.404C478.558,282.341,478.445,285.476,478.445,287.565z"/>
	<path fill="#FFFFFF" d="M523.62,269.021c0,2.227-0.092,5.57-0.276,10.034c-0.188,4.463-0.279,7.817-0.279,10.063v19.308
		c0,0.526-0.283,0.791-0.85,0.791c-0.47,0-1.177,0.019-2.123,0.059c-0.949,0.039-1.656,0.059-2.125,0.059
		c-0.508,0-1.271-0.039-2.285-0.116s-1.777-0.117-2.285-0.117c-0.352,0-0.771-0.322-1.26-0.967
		c-1.406-1.895-4.57-6.095-9.492-12.599c-1.348-1.816-3.398-4.492-6.152-8.027c-0.078-0.116-0.225-0.233-0.438-0.352
		c-0.156,0.137-0.234,0.352-0.234,0.645c0,2.268,0.063,5.665,0.191,10.195c0.127,4.531,0.188,7.931,0.188,10.195
		c0,0.685-0.264,1.025-0.791,1.025h-10.137c-0.566,0-0.85-0.304-0.85-0.908c0-2.109,0.103-5.292,0.308-9.551
		s0.308-7.451,0.308-9.581c0-2.244-0.093-5.604-0.277-10.077c-0.188-4.473-0.278-7.822-0.278-10.05c0-0.429,0.381-0.645,1.144-0.645
		c1.133,0,2.528-0.078,4.188-0.234c0.392-0.039,1.162-0.166,2.314-0.381c0.977-0.176,1.748-0.264,2.313-0.264
		c0.234,0,0.596,0.333,1.084,0.996l10.928,14.971c0.978,1.348,2.451,3.321,4.425,5.918c0.487,0.605,0.907,0.908,1.26,0.908
		c0.254,0,0.381-0.762,0.381-2.285c0-2.051-0.113-5.137-0.336-9.258c-0.225-4.121-0.338-7.217-0.338-9.287
		c0-0.722,0.205-1.084,0.615-1.084c1.172,0,2.938-0.048,5.303-0.146c2.363-0.098,4.131-0.146,5.303-0.146
		C523.436,268.112,523.62,268.416,523.62,269.021z"/>
	<path fill="#FFFFFF" d="M567.713,308.483c0,0.353-0.244,0.597-0.732,0.732c-0.586,0.155-2.402,0.233-5.449,0.233
		c-2.793,0-4.59-0.078-5.391-0.233c-0.664-0.137-1.084-0.575-1.26-1.318c-0.664-2.813-1.183-4.316-1.554-4.512
		c-0.313-0.136-2.93-0.205-7.852-0.205c-3.32,0-5.088,0.088-5.303,0.264c-0.332,0.313-0.703,1.358-1.113,3.135
		c-0.371,1.622-0.82,2.501-1.348,2.638c-0.664,0.155-2.892,0.233-6.681,0.233c-2.987,0-4.481-0.281-4.481-0.85
		c0-0.508,2.207-6.748,6.621-18.722c4.784-12.948,7.383-20.067,7.793-21.356c0.233-0.742,0.508-1.113,0.819-1.113
		c0.527,0,1.345,0.049,2.447,0.146s1.928,0.146,2.476,0.146c0.526,0,1.305-0.034,2.329-0.103c1.025-0.068,1.791-0.104,2.3-0.104
		c0.371,0,0.713,0.322,1.024,0.967c0.957,2.052,3.75,9.082,8.379,21.095C565.389,301.647,567.713,307.956,567.713,308.483z
		 M546.941,281.794c-0.41,0.86-1.104,2.726-2.08,5.597c-1.055,3.047-1.582,4.834-1.582,5.36c0,0.353,0.586,0.547,1.758,0.586
		c0.605,0.04,1.603,0.06,2.988,0.06c1.289,0,2.002-0.156,2.139-0.469c0.039-0.099,0.06-0.234,0.06-0.41
		c0-0.646-0.449-2.421-1.349-5.332C547.995,284.372,547.352,282.575,546.941,281.794z"/>
</g>
<polygon id="logo-hex" fill="none" stroke="#FFFFFF" stroke-width="10" stroke-miterlimit="10" points="665.786,155.701 
	610.041,338.047 424.252,380.938 294.212,241.486 349.959,59.143 535.747,16.25 "/>
<text transform="matrix(1 0 0 1 320 447.1267)" fill="#F92672" font-family="'Monospace'" font-size="45">WebDeveloper</text>
<text transform="matrix(1 0 0 1 640 447.1267)" fill="#FFFFFF" font-family="'Monospace'" font-size="45">;</text>
</svg>
