<svg version="1.1" id="logo-sm" xmlns="http://www.w3.org/2000/svg" xmlns:xlink="http://www.w3.org/1999/xlink" x="0px" y="0px"
	 width="132px" height="134px" viewBox="0 0 132 134" enable-background="new 0 0 132 134" xml:space="preserve">
	<polygon id="logo-sm-hex" fill="none" stroke="#333333" stroke-width="8" stroke-miterlimit="10" points="57.307,104.781 28.973,78.32 
		37.666,40.539 74.693,29.219 103.027,55.679 94.334,93.461 	"/>
	<path id="logo-sm-d" fill="#333333" stroke="none" stroke-miterlimit="10" d="M84.001,65.637c0,4.785-1.538,8.936-4.614,12.451
		c-2.718,3.142-6.535,4.793-11.45,4.956c-0.944,0.032-3.54,0.049-7.788,0.049c-0.798,0-1.998-0.024-3.601-0.073
		c-1.604-0.049-2.804-0.073-3.601-0.073c-0.472,0-0.708-0.187-0.708-0.562c0-1.79,0.069-4.48,0.208-8.069
		c0.138-3.589,0.208-6.278,0.208-8.069c0-1.872-0.069-4.675-0.208-8.411c-0.139-3.735-4.448-6.271-4.448-8.126
		c0-0.342,4.476-0.805,4.948-0.87c1.155-0.13,3.052-0.195,5.688-0.195c5.013,0,8.26,0.073,9.741,0.22
		c3.857,0.391,6.876,1.367,9.058,2.93c2.051,1.465,3.67,3.516,4.858,6.152C83.432,60.437,84.001,63,84.001,65.637z M70.592,65.816
		c4,0,3.236-5.176,1.593-6.917c-1.66-1.807-3.857-2.71-6.592-2.71c-2.507,0-3.76,0.334-3.76,1.001c0,0.96-0.017,2.405-0.049,4.333
		c-0.033,1.929-0.049,3.374-0.049,4.333c0,0.944,0.016,2.364,0.049,4.26c0.032,1.896,0.049,3.325,0.049,4.285
		c0,0.7,1.302,1.05,3.906,1.05c2.815,0,5.029-0.936,6.641-2.808C73.894,70.87,67.695,65.816,70.592,65.816z"/>
</svg>
