<svg version="1.1" id="html5" xmlns="http://www.w3.org/2000/svg" xmlns:xlink="http://www.w3.org/1999/xlink" x="0px" y="0px"
	 width="396.739px" height="560px" viewBox="281.63 0 396.739 560" enable-background="new 281.63 0 396.739 560"
	 xml:space="preserve">
<g id="text">
	<path id="h" d="M318.543,0h25.24v24.938h23.089V0h25.241v75.518h-25.24V50.229h-23.089v25.288h-25.24L318.543,0L318.543,0z"/>
	<path id="t" d="M425.306,25.043h-22.221V0h69.693v25.043h-22.23v50.475h-25.241L425.306,25.043L425.306,25.043z"/>
	<path id="m" d="M483.84,0h26.318l16.19,26.534L542.522,0h26.329v75.518h-25.137V38.087l-17.365,26.851h-0.435l-17.378-26.851
		v37.431H483.84V0z"/>
	<path id="l" d="M581.412,0h25.248v50.556h35.495v24.962h-60.743V0z"/>
</g>
<g id="shield">
	<polygon fill="#E44D26" points="317.736,515.022 281.63,110.053 678.369,110.053 642.226,514.959 479.757,560 	"/>
	<polygon fill="#F16529" points="480,525.572 611.282,489.176 642.17,143.166 480,143.166 	"/>
	<polygon fill="#EBEBEB" points="480,293.362 414.277,293.362 409.738,242.502 480,242.502 480,192.834 479.828,192.834 
		355.457,192.834 356.646,206.159 368.853,343.03 480,343.03 	"/>
	<polygon fill="#EBEBEB" points="480,422.355 479.782,422.413 424.467,407.476 420.931,367.864 394.052,367.864 371.073,367.864 
		378.031,445.85 479.771,474.094 480,474.03 	"/>
	<polygon fill="#FFFFFF" points="479.828,293.362 479.828,343.03 540.989,343.03 535.223,407.445 479.828,422.396 479.828,474.07 
		581.65,445.85 582.397,437.459 594.068,306.7 595.28,293.362 581.896,293.362 	"/>
	<polygon fill="#FFFFFF" points="479.828,192.834 479.828,223.681 479.828,242.381 479.828,242.502 599.64,242.502 599.64,242.502 
		599.799,242.502 600.795,231.338 603.059,206.159 604.246,192.834 	"/>
</g>
</svg>
