<svg version="1.1" id="java" xmlns="http://www.w3.org/2000/svg" xmlns:xlink="http://www.w3.org/1999/xlink" x="0px" y="0px"
	 width="273.63px" height="371.013px" viewBox="14.555 4.399 273.63 371.013" enable-background="new 14.555 4.399 273.63 371.013"
	 xml:space="preserve">
<path fill="#5382A1" d="M102.681,291.324c0,0-14.178,8.245,10.09,11.035c29.4,3.354,44.426,2.873,76.825-3.259
	c0,0,8.518,5.341,20.414,9.967C137.38,340.195,45.634,307.264,102.681,291.324"/>
<path fill="#5382A1" d="M93.806,250.704c0,0-15.902,11.771,8.384,14.283c31.406,3.24,56.208,3.505,99.125-4.759
	c0,0,5.937,6.018,15.271,9.309C128.771,295.215,30.962,271.562,93.806,250.704"/>
<path fill="#E76F00" d="M168.625,181.799c17.896,20.604-4.702,39.146-4.702,39.146s45.44-23.458,24.572-52.833
	c-19.491-27.395-34.438-41.005,46.479-87.934C234.975,80.177,107.961,111.899,168.625,181.799"/>
<path fill="#5382A1" d="M264.684,321.369c0,0,10.492,8.646-11.555,15.333c-41.923,12.7-174.488,16.535-211.314,0.507
	c-13.238-5.76,11.587-13.752,19.396-15.429c8.144-1.766,12.798-1.437,12.798-1.437c-14.722-10.371-95.157,20.363-40.857,29.166
	C181.236,373.524,303.096,338.695,264.684,321.369"/>
<path fill="#5382A1" d="M109.499,208.617c0,0-67.431,16.016-23.879,21.832c18.389,2.462,55.047,1.905,89.192-0.956
	c27.906-2.354,55.928-7.358,55.928-7.358s-9.84,4.214-16.959,9.074c-68.475,18.01-200.756,9.631-162.674-8.79
	C83.313,206.851,109.499,208.617,109.499,208.617"/>
<path fill="#5382A1" d="M230.462,276.231c69.608-36.171,37.425-70.932,14.96-66.248c-5.506,1.146-7.961,2.139-7.961,2.139
	s2.044-3.202,5.948-4.588c44.44-15.624,78.618,46.081-14.347,70.521C229.063,278.055,230.141,277.092,230.462,276.231"/>
<path fill="#E76F00" d="M188.495,4.399c0,0,38.55,38.563-36.563,97.862c-60.232,47.567-13.735,74.689-0.024,105.678
	c-35.159-31.723-60.961-59.647-43.651-85.637C133.663,84.151,204.049,65.654,188.495,4.399"/>
<path fill="#5382A1" d="M116.339,374.246c66.815,4.277,169.417-2.373,171.847-33.987c0,0-4.67,11.984-55.219,21.503
	c-57.027,10.731-127.364,9.479-169.081,2.601C63.887,364.361,72.426,371.43,116.339,374.246"/>
</svg>
