<?xml version="1.0" encoding="utf-8"?>
<!-- Generator: Adobe Illustrator 16.0.0, SVG Export Plug-In . SVG Version: 6.00 Build 0)  -->
<!DOCTYPE svg PUBLIC "-//W3C//DTD SVG 1.1//EN" "http://www.w3.org/Graphics/SVG/1.1/DTD/svg11.dtd">
<svg version="1.1" id="jquery" xmlns="http://www.w3.org/2000/svg" xmlns:xlink="http://www.w3.org/1999/xlink" x="0px" y="0px"
	 width="181px" height="159.371px" viewBox="-29.587 8.938 181 159.371" enable-background="new -29.587 8.938 181 159.371"
	 xml:space="preserve">
<g id="logo">
	<path fill="#0868AC" d="M45.021,78.929C23.928,64.521,16.113,39.042,26.989,21.224c-0.092,0.109-0.192,0.208-0.281,0.32
		c-5.093,6.348-11.568,11.765-12.736,26.841c-1.211,15.628,7.666,31.967,22.132,41.848c14.812,10.116,31.801,12.468,48.757,5.361
		c11.976-5.019,20.311-18.97,20.708-20.941c0.021-0.104,0.034-0.215,0.055-0.321C93.107,91.31,66.28,93.448,45.021,78.929z"/>
	<path fill="#0868AC" d="M64.049,55.858c-15.31-10.458-20.826-29.602-12.926-42.536c-0.058,0.085-0.142,0.154-0.211,0.229
		c-3.689,4.613-8.39,8.547-9.241,19.498c-0.878,11.34,5.081,23.531,15.585,30.707c10.762,7.351,23.569,8.72,35.885,3.566
		c8.703-3.644,14.041-13.001,14.776-15.778c0.02-0.075,0.032-0.149,0.048-0.224C98.88,63.644,79.493,66.407,64.049,55.858z"/>
	<path fill="#0868AC" d="M78.176,34.728c-9.267-6.329-12.329-17.959-7.548-25.791c-0.035,0.052-0.463,0.527-0.501,0.574
		c-2.233,2.792-4.626,4.894-5.141,11.522c-0.533,6.863,3.05,14.823,9.409,19.167c6.512,4.448,13.975,6.337,21.435,3.222
		c5.262-2.209,9.591-8.213,9.762-9.085c0.012-0.046,0.017-0.092,0.029-0.135C100.125,41.664,87.524,41.113,78.176,34.728z"/>
</g>
<g id="text">
	<path fill="#131B28" d="M126.551,132.427l-0.738-3.183c-0.604-2.315-2.361-3.684-6.158-3.684h-17.469
		c-0.378,0-0.737,0.313-0.817,0.677l0,0c0,0-5.765,27.074-6.041,28.354c-0.349,1.244-0.075,1.397,1.059,1.344
		c0.854,0,2.989,0.012,4.807,0c2.343,0.018,2.074-0.09,2.458-2.051c0.231-1.03,4.21-20.172,4.21-20.172
		c0.069-0.363,0.441-0.636,0.807-0.638l17.37-0.02C126.422,133.057,126.636,132.788,126.551,132.427L126.551,132.427z"/>
	<path fill="#131B28" d="M86.09,136.624l-0.001-0.018c-0.038,0.416-0.402,0.673-0.768,0.673H75.28c-0.347,0-0.523-0.23-0.463-0.522
		c0.002-0.015,0.019-0.088,0.043-0.229c0.959-2.511,2.911-4.223,6.586-4.223C85.571,132.306,86.384,134.371,86.09,136.624
		L86.09,136.624z M83.147,125.03c-12.867,0-15.918,7.806-17.623,15.733c-1.721,7.995-1.567,15.553,11.759,15.553
		c0,0,10.784-0.052,12.209-0.077c0.362-0.013,0.717-0.289,0.796-0.648l1.277-6.318c0.077-0.366-0.156-0.644-0.536-0.644H79.065
		c-4.382,0-5.907-1.075-5.744-4.145c0.032-0.473,0.553-0.831,0.752-0.866c0.394,0,18.474,0,18.474,0h-0.003c0.01,0,0.021,0,0.027,0
		c0.292,0,0.571-0.206,0.687-0.472c0.03-0.067,0.044-0.088,0.045-0.156v0.006C96.138,132.277,95.333,125.03,83.147,125.03
		L83.147,125.03z"/>
	<path fill="#131B28" d="M22.131,137.228L22.131,137.228l-1.451,5.124L22.131,137.228L22.131,137.228z"/>
	<path fill="#131B28" d="M29.568,148.362l-1.594-0.009L29.568,148.362z"/>
	<path fill="#131B28" d="M29.153,155.982h0.002l-9.546,0.028L29.153,155.982L29.153,155.982z"/>
	<path fill="#131B28" d="M31.159,148.362h-1.595H31.159z"/>
	<path fill="#131B28" d="M29.995,155.349l1.662-6.325l-1.662,6.327V155.349L29.995,155.349z"/>
	<path fill="#131B28" d="M65.139,126.118l-3.099,14.603L65.139,126.118z"/>
	<path fill="#131B28" d="M57.176,126.118l-2.343,10.917L57.176,126.118L57.176,126.118z"/>
	<path fill="#131B28" d="M64.609,125.5h-6.624c-0.367,0-0.732,0.266-0.811,0.618l-4.703,21.761
		c-0.079,0.358-0.442,0.662-0.806,0.662h-4.688c-4.645,0-4.106-3.182-3.157-7.604c0.009-0.021,2.977-14.819,2.977-14.819
		c0.077-0.353-0.169-0.618-0.535-0.618h-6.8c-0.366,0-0.73,0.266-0.806,0.618l-3.066,14.538c-1.682,7.706-1.237,15.014,7.92,15.279
		c0.144,0,14.625,0,14.625,0c0.367,0,0.731-0.324,0.808-0.678l6.197-29.14C65.215,125.766,64.982,125.5,64.609,125.5L64.609,125.5z"
		/>
	<path fill="#131B28" d="M91.03,148.628c0.383,0,0.613,0.276,0.538,0.645l-0.643,3.157"/>
	<path fill="#131B28" d="M90.292,155.583l0.633-3.153l-0.634,3.155C90.291,155.583,90.292,155.583,90.292,155.583L90.292,155.583z"
		/>
	<path fill="#131B28" d="M89.488,156.241c0,0,0-0.002,0.002-0.002c-1.949,0.033-7.818,0.077-12.209,0.077
		C82.629,156.316,89.488,156.242,89.488,156.241L89.488,156.241z"/>
	<path fill="#131B28" d="M77.873,156.314c-0.038,0-0.082,0-0.125,0.002C77.791,156.314,77.835,156.314,77.873,156.314z"/>
	<path fill="#131B28" d="M91.03,148.628c0.383,0,0.613,0.276,0.538,0.645l-0.643,3.157l-0.097,0.528"/>
	<path fill="#131B28" d="M81.016,156.3h-0.021H81.016z"/>
	<path fill="#131B28" d="M79.391,156.311H79.29H79.391z"/>
	<path fill="#131B28" d="M78.894,156.313c-0.061,0-0.101,0-0.164,0.001C78.793,156.313,78.833,156.313,78.894,156.313z"/>
	<path fill="#131B28" d="M78.382,156.314h-0.124H78.382z"/>
	<path fill="#131B28" d="M79.29,156.311c-0.129,0-0.271,0.002-0.396,0.002C79.018,156.313,79.16,156.311,79.29,156.311z"/>
	<path fill="#131B28" d="M80.995,156.3c-0.536,0.005-1.075,0.01-1.599,0.013C79.92,156.311,80.46,156.305,80.995,156.3z"/>
	<path fill="#131B28" d="M89.491,156.238L89.491,156.238c-1.426,0.026-4.956,0.051-8.478,0.062
		C84.535,156.289,88.065,156.265,89.491,156.238z"/>
	<path fill="#131B28" d="M90.292,155.585l0.536-2.627l-0.537,2.631C90.291,155.587,90.292,155.587,90.292,155.585L90.292,155.585z"
		/>
	<path fill="#131B28" d="M78.731,156.314h-0.35H78.731z"/>
	<path fill="#131B28" d="M77.747,156.316h-0.464H77.747z"/>
	<path fill="#131B28" d="M78.257,156.314h-0.386H78.257z"/>
	<path fill="#131B28" d="M-18.655,144.652l1.031-4.569l-1.177,5.247l-1.131,5.303l0.988-4.682
		C-18.864,145.583-18.738,145.006-18.655,144.652L-18.655,144.652z"/>
	<path fill="#131B28" d="M-6.336,125.385h-7.279c-0.367,0-0.734,0.327-0.816,0.69l-1.379,6.054
		c-0.082,0.354,0.152,0.678,0.518,0.678h7.332c0.37,0,0.738-0.323,0.815-0.678l1.335-6.049v-0.002
		C-5.734,125.713-5.969,125.385-6.336,125.385L-6.336,125.385z"/>
	<path fill="#131B28" d="M-7.919,135.521v-0.002l-2.135,9.867L-7.919,135.521z"/>
	<path fill="#131B28" d="M-29.054,168.234c0,0,3.665,0.074,5.996,0.074c-1.771,0-4.698-0.039-6-0.076
		C-29.056,168.232-29.055,168.234-29.054,168.234L-29.054,168.234z"/>
	<path fill="#131B28" d="M-16.596,135.518l-1.029,4.565L-16.596,135.518z"/>
	<path fill="#131B28" d="M-8.446,134.9h-7.333c-0.366,0-0.736,0.252-0.815,0.618l-4.324,19.739
		c-0.618,2.499-1.726,5.376-4.029,5.327c-0.097-0.006-2.28-0.024-2.28-0.024h-0.001c-0.368,0-0.734,0.286-0.821,0.647l-0.763,3.198
		l-0.756,3.195c-0.085,0.354,0.144,0.616,0.511,0.629c1.303,0.036,4.23,0.078,6,0.078c5.753,0,8.785-3.183,10.729-12.36l4.411-20.43
		C-7.841,135.153-8.08,134.9-8.446,134.9L-8.446,134.9z"/>
	<path fill="#131B28" d="M103.378,155.258l2.224-11.003L103.378,155.258z"/>
	<path fill="#131B28" d="M104.503,149.772l0.984-4.911c0,0.006-0.001,0.012-0.001,0.012L104.503,149.772L104.503,149.772z"/>
	<path fill="#131B28" d="M126.266,131.18l0.286,1.247c0.085,0.362-0.128,0.63-0.509,0.632"/>
	<path fill="#131B28" d="M103.51,154.592l0.992-4.818L103.51,154.592z"/>
	<path fill="#131B28" d="M125.948,129.852l0.316,1.328L125.948,129.852z"/>
	<path fill="#131B28" d="M105.487,144.861c0.073-0.359,0.189-0.916,0.269-1.27l1.054-4.95l-1.207,5.613L105.487,144.861
		L105.487,144.861z"/>
	<path fill="#131B28" d="M100.798,129.004c-0.077,0.339-0.169,0.798-0.244,1.099l-2.613,12.249l2.769-12.903L100.798,129.004
		L100.798,129.004z"/>
	<path fill="#131B28" d="M142.027,121.087c-0.366,0-0.821,0.231-1.029,0.556l-12.321,18.029c-0.199,0.261-0.446,0.213-0.529-0.148
		l-0.904-3.928c-0.079-0.359-0.445-0.668-0.8-0.668h-7.93c-0.365,0-0.567,0.309-0.469,0.662l3.539,12.418
		c0.092,0.354,0.1,0.889,0.011,1.249l-1.529,6.01c-0.092,0.359,0.119,0.688,0.483,0.688h7.837c0.356,0,0.725-0.328,0.816-0.688
		l1.563-6.01c0.093-0.36,0.351-0.894,0.554-1.17l19.976-26.511c0.238-0.272,0.098-0.537-0.265-0.531L142.027,121.087z"/>
	<path fill="#131B28" d="M22.311,136.549l-3.075,10.932c-0.097,0.354-0.478,0.635-0.853,0.635h-7.648
		c-5.804,0-7.218-4.523-5.804-11.241c1.411-6.866,4.185-11.128,9.894-11.519C22.632,124.725,24.193,130.227,22.311,136.549
		L22.311,136.549z M31.982,133.869c1.121-6.729-2.271-16.588-15.372-16.588c-13.02,0-18.676,9.374-20.83,19.593
		c-2.16,10.253,0.667,19.266,13.617,19.217l19.757-0.108c0.369-0.007,0.749-0.275,0.842-0.634l1.665-6.325
		c0.093-0.354-0.136-0.661-0.501-0.661l-3.188-0.009c-0.316-0.006-0.496-0.204-0.453-0.515
		C27.526,147.834,31.166,138.967,31.982,133.869z"/>
	<path fill="#131B28" d="M92.024,141.827c0,0.27-0.203,0.479-0.437,0.479c-0.24,0-0.436-0.21-0.436-0.479
		c0-0.209,0.195-0.396,0.436-0.396C91.821,141.433,92.024,141.618,92.024,141.827z"/>
</g>
</svg>
