<svg id="js" version="1.1" xmlns="http://www.w3.org/2000/svg" xmlns:xlink="http://www.w3.org/1999/xlink" x="0px" y="0px" width="560px"
	 height="560px" viewBox="200 0 560 560" enable-background="new 200 0 560 560" xml:space="preserve">
<rect id="bg" x="200" y="0" fill="#F7DF1E" width="560" height="560"/>
<path id="text" d="M576.178,437.503c11.279,18.418,25.955,31.955,51.91,31.955c21.805,0,35.733-10.897,35.733-25.955
	c0-18.045-14.311-24.436-38.311-34.934l-13.155-5.645c-37.974-16.178-63.2-36.444-63.2-79.289c0-39.467,30.071-69.511,77.066-69.511
	c33.458,0,57.511,11.645,74.845,42.133l-40.978,26.312c-9.022-16.178-18.756-22.551-33.867-22.551
	c-15.413,0-25.183,9.777-25.183,22.551c0,15.787,9.778,22.178,32.356,31.956l13.155,5.635
	c44.711,19.174,69.955,38.721,69.955,82.667c0,47.378-37.218,73.333-87.199,73.333c-48.871,0-80.445-23.288-95.894-53.813
	L576.178,437.503z M390.284,442.062c8.267,14.667,15.787,27.066,33.866,27.066c17.289,0,28.195-6.764,28.195-33.066V257.129h52.623
	v179.645c0,54.489-31.947,79.289-78.578,79.289c-42.133,0-66.533-21.805-78.942-48.066L390.284,442.062z"/>
</svg>
