<svg version="1.1" id="node" xmlns="http://www.w3.org/2000/svg" xmlns:xlink="http://www.w3.org/1999/xlink" x="0px" y="0px"
	 width="442.312px" height="270.925px" viewBox="0 0 442.312 270.925" enable-background="new 0 0 442.312 270.925"
	 xml:space="preserve">
<g>
	<defs>
		<rect id="SVGID_1_" x="-78.365" y="-164.019" width="600" height="600"/>
	</defs>
	<clipPath id="SVGID_2_">
		<use xlink:href="#SVGID_1_"  overflow="visible"/>
	</clipPath>
	<path clip-path="url(#SVGID_2_)" fill="#699F63" d="M218.588,270.925c-1.46,0-2.912-0.381-4.19-1.121l-13.338-7.892
		c-1.991-1.114-1.019-1.509-0.362-1.738c2.657-0.922,3.195-1.135,6.031-2.743c0.295-0.167,0.687-0.103,0.992,0.076l10.247,6.083
		c0.371,0.206,0.895,0.206,1.237,0l39.95-23.058c0.372-0.212,0.609-0.641,0.609-1.081v-46.104c0-0.451-0.237-0.872-0.62-1.101
		l-39.933-23.038c-0.369-0.216-0.859-0.216-1.231,0l-39.923,23.045c-0.388,0.222-0.634,0.657-0.634,1.094v46.104
		c0,0.44,0.246,0.858,0.63,1.067l10.944,6.323c5.938,2.969,9.574-0.528,9.574-4.041v-45.519c0-0.645,0.517-1.151,1.161-1.151h5.065
		c0.634,0,1.158,0.507,1.158,1.151v45.519c0,7.925-4.316,12.47-11.829,12.47c-2.309,0-4.127,0-9.202-2.501l-10.476-6.03
		c-2.588-1.496-4.19-4.293-4.19-7.288v-46.104c0-2.995,1.602-5.792,4.19-7.281l39.949-23.085c2.528-1.429,5.888-1.429,8.396,0
		l39.947,23.085c2.587,1.496,4.195,4.286,4.195,7.281v46.104c0,2.995-1.608,5.781-4.195,7.288l-39.947,23.064
		C221.517,270.544,220.068,270.925,218.588,270.925"/>
	<path clip-path="url(#SVGID_2_)" fill="#699F63" d="M230.928,239.163c-17.481,0-21.144-8.024-21.144-14.755
		c0-0.641,0.514-1.151,1.154-1.151h5.165c0.577,0,1.058,0.415,1.148,0.979c0.78,5.258,3.105,7.912,13.677,7.912
		c8.416,0,11.999-1.904,11.999-6.369c0-2.574-1.016-4.485-14.095-5.767c-10.931-1.081-17.692-3.496-17.692-12.239
		c0-8.062,6.794-12.868,18.186-12.868c12.798,0,19.131,4.441,19.933,13.972c0.03,0.329-0.086,0.645-0.305,0.889
		c-0.219,0.229-0.524,0.369-0.846,0.369h-5.186c-0.537,0-1.012-0.382-1.121-0.902c-1.243-5.533-4.269-7.302-12.476-7.302
		c-9.189,0-10.257,3.201-10.257,5.601c0,2.906,1.26,3.751,13.667,5.393c12.276,1.623,18.108,3.921,18.108,12.55
		C250.845,234.176,243.587,239.163,230.928,239.163"/>
	<path clip-path="url(#SVGID_2_)" fill="#699F63" d="M288.533,190.812c0,4.236-3.464,7.699-7.698,7.699
		c-4.197,0-7.7-3.422-7.7-7.699c0-4.359,3.586-7.701,7.7-7.701C284.99,183.111,288.533,186.453,288.533,190.812 M274.379,190.791
		c0,3.586,2.893,6.479,6.436,6.479c3.586,0,6.479-2.954,6.479-6.479c0-3.585-2.933-6.437-6.479-6.437
		C277.312,184.354,274.379,187.165,274.379,190.791 M277.941,186.492h2.976c1.019,0,3.016,0,3.016,2.283
		c0,1.589-1.019,1.914-1.632,2.118c1.184,0.081,1.264,0.856,1.426,1.955c0.083,0.692,0.206,1.875,0.448,2.281h-1.831
		c-0.043-0.406-0.329-2.607-0.329-2.729c-0.119-0.49-0.285-0.732-0.896-0.732h-1.506v3.461h-1.672V186.492z M279.573,190.281h1.344
		c1.098,0,1.304-0.772,1.304-1.221c0-1.183-0.816-1.183-1.264-1.183h-1.384V190.281z"/>
	<path clip-path="url(#SVGID_2_)" fill-rule="evenodd" clip-rule="evenodd" fill="#333333" d="M94.877,90.548
		c0-1.841-0.969-3.533-2.558-4.445L49.964,61.728c-0.716-0.422-1.519-0.641-2.331-0.674h-0.438c-0.81,0.033-1.612,0.252-2.339,0.674
		L2.501,86.103c-1.579,0.912-2.561,2.604-2.561,4.445l0.093,65.635c0,0.913,0.474,1.762,1.277,2.21c0.786,0.471,1.758,0.471,2.541,0
		l25.172-14.414c1.592-0.945,2.561-2.614,2.561-4.438v-30.665c0-1.828,0.968-3.52,2.554-4.429l10.718-6.173
		c0.799-0.461,1.672-0.687,2.564-0.687c0.873,0,1.768,0.226,2.544,0.687l10.715,6.173c1.586,0.909,2.558,2.601,2.558,4.429v30.665
		c0,1.824,0.982,3.504,2.564,4.438l25.165,14.414c0.789,0.471,1.775,0.471,2.557,0c0.78-0.448,1.271-1.297,1.271-2.21L94.877,90.548
		z"/>
	<path clip-path="url(#SVGID_2_)" fill-rule="evenodd" clip-rule="evenodd" fill="#333333" d="M298.675,0.321
		c-0.793-0.44-1.76-0.431-2.543,0.029c-0.78,0.459-1.262,1.299-1.262,2.206v65c0,0.639-0.342,1.231-0.894,1.551
		c-0.555,0.32-1.237,0.32-1.791,0l-10.609-6.112c-1.582-0.913-3.529-0.911-5.112,0.001l-42.371,24.453
		c-1.584,0.914-2.559,2.603-2.559,4.431v48.917c0,1.828,0.975,3.516,2.557,4.432l42.37,24.471c1.584,0.914,3.534,0.914,5.118,0
		l42.377-24.471c1.582-0.916,2.558-2.604,2.558-4.432V18.86c0-1.854-1.004-3.564-2.624-4.468L298.675,0.321z M294.744,124.724
		c0,0.456-0.244,0.879-0.64,1.106l-14.549,8.386c-0.395,0.227-0.882,0.227-1.276,0l-14.548-8.386
		c-0.397-0.227-0.641-0.65-0.641-1.106v-16.799c0-0.456,0.243-0.879,0.64-1.108l14.547-8.402c0.396-0.229,0.884-0.229,1.28,0
		l14.548,8.402c0.395,0.229,0.639,0.652,0.639,1.108V124.724z"/>
	<path clip-path="url(#SVGID_2_)" fill-rule="evenodd" clip-rule="evenodd" fill="#333333" d="M439.766,107.486
		c1.576-0.915,2.546-2.601,2.546-4.424V91.208c0-1.823-0.97-3.51-2.548-4.425L397.665,62.34c-1.584-0.921-3.539-0.922-5.127-0.007
		l-42.356,24.453c-1.583,0.914-2.558,2.602-2.558,4.43v48.903c0,1.841,0.986,3.537,2.584,4.446l42.093,23.985
		c1.552,0.886,3.455,0.896,5.017,0.027l25.46-14.15c0.809-0.45,1.312-1.297,1.316-2.22c0.006-0.923-0.485-1.776-1.284-2.235
		l-42.625-24.465c-0.796-0.456-1.286-1.304-1.286-2.219v-15.326c0-0.914,0.488-1.76,1.281-2.216l13.266-7.648
		c0.789-0.456,1.765-0.456,2.555,0l13.271,7.648c0.793,0.456,1.28,1.302,1.28,2.216v12.058c0,0.916,0.49,1.762,1.283,2.218
		c0.793,0.458,1.77,0.454,2.561-0.005L439.766,107.486z"/>
	<path clip-path="url(#SVGID_2_)" fill-rule="evenodd" clip-rule="evenodd" fill="#699F63" d="M394.477,105.195
		c0.305-0.176,0.679-0.176,0.982,0l8.13,4.69c0.304,0.176,0.491,0.5,0.491,0.851v9.388c0,0.352-0.188,0.675-0.491,0.851l-8.13,4.691
		c-0.304,0.176-0.678,0.176-0.982,0l-8.124-4.691c-0.304-0.176-0.49-0.499-0.49-0.851v-9.388c0-0.351,0.187-0.675,0.49-0.851
		L394.477,105.195z"/>
</g>
<g>
	<defs>
		<path id="SVGID_3_" d="M160.667,62.588l-42.134,24.315c-1.576,0.909-2.545,2.588-2.545,4.407v48.666
			c0,1.817,0.969,3.497,2.544,4.408l42.133,24.334c1.576,0.909,3.516,0.909,5.091,0l42.124-24.334
			c1.574-0.911,2.543-2.591,2.543-4.408V91.308c0-1.817-0.969-3.496-2.545-4.405l-42.123-24.315
			c-0.787-0.454-1.666-0.682-2.544-0.682C162.332,61.906,161.454,62.134,160.667,62.588"/>
	</defs>
	<clipPath id="SVGID_4_">
		<use xlink:href="#SVGID_3_"  overflow="visible"/>
	</clipPath>
	
		<linearGradient id="SVGID_5_" gradientUnits="userSpaceOnUse" x1="-78.3652" y1="435.9829" x2="-77.3652" y2="435.9829" gradientTransform="matrix(-38.0649 77.6524 77.6524 38.0649 -36657.5859 -10429.6484)">
		<stop  offset="0" style="stop-color:#41873F"/>
		<stop  offset="0.3288" style="stop-color:#418B3D"/>
		<stop  offset="0.6352" style="stop-color:#419637"/>
		<stop  offset="0.9319" style="stop-color:#3FA92D"/>
		<stop  offset="1" style="stop-color:#3FAE2A"/>
	</linearGradient>
	<polygon clip-path="url(#SVGID_4_)" fill="url(#SVGID_5_)" points="252.997,82.776 192.127,206.95 73.414,148.757 134.283,24.583 	
		"/>
</g>
<g>
	<defs>
		<path id="SVGID_6_" d="M117.035,143.067c0.401,0.525,0.906,0.975,1.497,1.317l36.143,20.874l6.017,3.46
			c0.9,0.519,1.927,0.738,2.936,0.665c0.337-0.028,0.673-0.09,1.001-0.186l44.43-81.357c-0.34-0.365-0.736-0.682-1.181-0.938
			L180.29,70.978l-14.579-8.39c-0.417-0.24-0.864-0.413-1.323-0.526L117.035,143.067z"/>
	</defs>
	<clipPath id="SVGID_7_">
		<use xlink:href="#SVGID_6_"  overflow="visible"/>
	</clipPath>
	
		<linearGradient id="SVGID_8_" gradientUnits="userSpaceOnUse" x1="-78.3652" y1="435.9868" x2="-77.3652" y2="435.9868" gradientTransform="matrix(106.8073 -78.9149 -78.9149 -106.8073 42932.1641 40503.0977)">
		<stop  offset="0" style="stop-color:#41873F"/>
		<stop  offset="0.1376" style="stop-color:#41873F"/>
		<stop  offset="0.4032" style="stop-color:#54A044"/>
		<stop  offset="0.7136" style="stop-color:#66B848"/>
		<stop  offset="0.9081" style="stop-color:#6CC04A"/>
		<stop  offset="1" style="stop-color:#6CC04A"/>
	</linearGradient>
	<polygon clip-path="url(#SVGID_7_)" fill="url(#SVGID_8_)" points="65.706,99.986 176.563,18.08 260.388,131.533 149.531,213.439 	
		"/>
</g>
<g>
	<defs>
		<path id="SVGID_9_" d="M160.667,62.588l-42.134,24.315c-1.575,0.909-2.545,2.588-2.545,4.407v48.666
			c0,1.817,0.97,3.497,2.544,4.408l42.133,24.334c1.576,0.909,3.516,0.909,5.091,0l42.124-24.334
			c1.574-0.911,2.543-2.591,2.543-4.408V91.308c0-1.817-0.969-3.496-2.545-4.405l-42.123-24.315
			c-0.787-0.454-1.666-0.682-2.544-0.682C162.332,61.906,161.454,62.134,160.667,62.588"/>
	</defs>
	<clipPath id="SVGID_10_">
		<use xlink:href="#SVGID_9_"  overflow="visible"/>
	</clipPath>
	<g clip-path="url(#SVGID_10_)">
		<defs>
			<polygon id="SVGID_11_" points="159.262,53.65 158.682,53.981 159.456,53.981 			"/>
		</defs>
		<clipPath id="SVGID_12_">
			<use xlink:href="#SVGID_11_"  overflow="visible"/>
		</clipPath>
		
			<linearGradient id="SVGID_13_" gradientUnits="userSpaceOnUse" x1="-78.3652" y1="435.981" x2="-77.3652" y2="435.981" gradientTransform="matrix(97.417 0 0 -97.417 7748.6152 42525.7461)">
			<stop  offset="0" style="stop-color:#6CC04A"/>
			<stop  offset="0.0919" style="stop-color:#6CC04A"/>
			<stop  offset="0.2864" style="stop-color:#66B848"/>
			<stop  offset="0.5968" style="stop-color:#54A044"/>
			<stop  offset="0.8624" style="stop-color:#41873F"/>
			<stop  offset="1" style="stop-color:#41873F"/>
		</linearGradient>
		<rect x="158.682" y="53.65" clip-path="url(#SVGID_12_)" fill="url(#SVGID_13_)" width="0.774" height="0.331"/>
	</g>
</g>
<g>
	<defs>
		<path id="SVGID_14_" d="M162.7,61.933c-0.705,0.07-1.398,0.289-2.033,0.655l-42.014,24.245l45.293,82.513
			c0.628-0.091,1.243-0.301,1.81-0.628l42.124-24.334c1.301-0.753,2.189-2.031,2.458-3.478l-46.178-78.89
			c-0.341-0.068-0.688-0.102-1.035-0.102C162.983,61.915,162.841,61.921,162.7,61.933"/>
	</defs>
	<clipPath id="SVGID_15_">
		<use xlink:href="#SVGID_14_"  overflow="visible"/>
	</clipPath>
	
		<linearGradient id="SVGID_16_" gradientUnits="userSpaceOnUse" x1="-78.3652" y1="435.981" x2="-77.3652" y2="435.981" gradientTransform="matrix(97.417 0 0 -97.417 7748.6152 42587.5586)">
		<stop  offset="0" style="stop-color:#6CC04A"/>
		<stop  offset="0.0919" style="stop-color:#6CC04A"/>
		<stop  offset="0.2864" style="stop-color:#66B848"/>
		<stop  offset="0.5968" style="stop-color:#54A044"/>
		<stop  offset="0.8624" style="stop-color:#41873F"/>
		<stop  offset="1" style="stop-color:#41873F"/>
	</linearGradient>
	<rect x="118.653" y="61.915" clip-path="url(#SVGID_15_)" fill="url(#SVGID_16_)" width="91.685" height="107.431"/>
</g>
<g>
	<defs>
		<path id="SVGID_17_" d="M160.667,62.588l-42.134,24.315c-1.575,0.909-2.545,2.588-2.545,4.407v48.666
			c0,1.817,0.97,3.497,2.544,4.408l42.133,24.334c1.576,0.909,3.516,0.909,5.091,0l42.124-24.334
			c1.574-0.911,2.543-2.591,2.543-4.408V91.308c0-1.817-0.969-3.496-2.545-4.405l-42.123-24.315
			c-0.787-0.454-1.666-0.682-2.544-0.682C162.332,61.906,161.454,62.134,160.667,62.588"/>
	</defs>
	<clipPath id="SVGID_18_">
		<use xlink:href="#SVGID_17_"  overflow="visible"/>
	</clipPath>
	<g clip-path="url(#SVGID_18_)">
		<defs>
			<polygon id="SVGID_19_" points="211.914,143.601 211.635,143.124 211.635,143.763 			"/>
		</defs>
		<clipPath id="SVGID_20_">
			<use xlink:href="#SVGID_19_"  overflow="visible"/>
		</clipPath>
		
			<linearGradient id="SVGID_21_" gradientUnits="userSpaceOnUse" x1="-78.3652" y1="435.981" x2="-77.3652" y2="435.981" gradientTransform="matrix(97.417 0 0 -97.417 7748.6152 42615.3711)">
			<stop  offset="0" style="stop-color:#6CC04A"/>
			<stop  offset="0.0919" style="stop-color:#6CC04A"/>
			<stop  offset="0.2864" style="stop-color:#66B848"/>
			<stop  offset="0.5968" style="stop-color:#54A044"/>
			<stop  offset="0.8624" style="stop-color:#41873F"/>
			<stop  offset="1" style="stop-color:#41873F"/>
		</linearGradient>
		<rect x="211.635" y="143.124" clip-path="url(#SVGID_20_)" fill="url(#SVGID_21_)" width="0.279" height="0.64"/>
	</g>
</g>
<g>
	<defs>
		<path id="SVGID_22_" d="M160.667,62.588l-42.134,24.315c-1.575,0.909-2.545,2.588-2.545,4.407v48.666
			c0,1.817,0.97,3.497,2.544,4.408l42.133,24.334c1.576,0.909,3.516,0.909,5.091,0l42.124-24.334
			c1.574-0.911,2.543-2.591,2.543-4.408V91.308c0-1.817-0.969-3.496-2.545-4.405l-42.123-24.315
			c-0.787-0.454-1.666-0.682-2.544-0.682C162.332,61.906,161.454,62.134,160.667,62.588"/>
	</defs>
	<clipPath id="SVGID_23_">
		<use xlink:href="#SVGID_22_"  overflow="visible"/>
	</clipPath>
	<g clip-path="url(#SVGID_23_)">
		<defs>
			<path id="SVGID_24_" d="M207.986,144.384l-42.177,24.333c-0.58,0.335-1.213,0.545-1.861,0.633l0.84,1.53l46.847-27.117v-0.64
				l-1.158-1.979C210.13,142.493,209.214,143.673,207.986,144.384"/>
		</defs>
		<clipPath id="SVGID_25_">
			<use xlink:href="#SVGID_24_"  overflow="visible"/>
		</clipPath>
		
			<linearGradient id="SVGID_26_" gradientUnits="userSpaceOnUse" x1="-78.3652" y1="435.9819" x2="-77.3652" y2="435.9819" gradientTransform="matrix(97.417 0 0 -97.417 7748.6152 42627.9961)">
			<stop  offset="0" style="stop-color:#6CC04A"/>
			<stop  offset="0.0919" style="stop-color:#6CC04A"/>
			<stop  offset="0.2864" style="stop-color:#66B848"/>
			<stop  offset="0.5968" style="stop-color:#54A044"/>
			<stop  offset="0.8624" style="stop-color:#41873F"/>
			<stop  offset="1" style="stop-color:#41873F"/>
		</linearGradient>
		<rect x="163.948" y="141.145" clip-path="url(#SVGID_25_)" fill="url(#SVGID_26_)" width="47.687" height="29.735"/>
	</g>
</g>
<g>
	<defs>
		<path id="SVGID_27_" d="M160.667,62.588l-42.134,24.315c-1.575,0.909-2.545,2.588-2.545,4.407v48.666
			c0,1.817,0.97,3.497,2.544,4.408l42.133,24.334c1.576,0.909,3.516,0.909,5.091,0l42.124-24.334
			c1.574-0.911,2.543-2.591,2.543-4.408V91.308c0-1.817-0.969-3.496-2.545-4.405l-42.123-24.315
			c-0.787-0.454-1.666-0.682-2.544-0.682C162.332,61.906,161.454,62.134,160.667,62.588"/>
	</defs>
	<clipPath id="SVGID_28_">
		<use xlink:href="#SVGID_27_"  overflow="visible"/>
	</clipPath>
	<g clip-path="url(#SVGID_28_)">
		<defs>
			<path id="SVGID_29_" d="M207.986,144.384l-42.177,24.333c-0.58,0.335-1.213,0.545-1.861,0.633l0.84,1.53l46.847-27.117v-0.64
				l-1.158-1.979C210.13,142.493,209.214,143.673,207.986,144.384"/>
		</defs>
		<clipPath id="SVGID_30_">
			<use xlink:href="#SVGID_29_"  overflow="visible"/>
		</clipPath>
		
			<linearGradient id="SVGID_31_" gradientUnits="userSpaceOnUse" x1="-78.3652" y1="435.978" x2="-77.3652" y2="435.978" gradientTransform="matrix(-60.0806 122.5644 122.5644 60.0806 -57917.8594 -16510.8535)">
			<stop  offset="0" style="stop-color:#41873F"/>
			<stop  offset="0.3288" style="stop-color:#418B3D"/>
			<stop  offset="0.6352" style="stop-color:#419637"/>
			<stop  offset="0.9319" style="stop-color:#3FA92D"/>
			<stop  offset="1" style="stop-color:#3FAE2A"/>
		</linearGradient>
		<polygon clip-path="url(#SVGID_30_)" fill="url(#SVGID_31_)" points="223.387,146.906 202.396,189.727 152.196,165.12 
			173.187,122.298 		"/>
	</g>
</g>
</svg>
