<svg version="1.1" id="python" xmlns="http://www.w3.org/2000/svg" xmlns:xlink="http://www.w3.org/1999/xlink" x="0px" y="0px"
	 width="228.035px" height="226.846px" viewBox="0 0 228.035 226.846" enable-background="new 0 0 228.035 226.846"
	 xml:space="preserve">
<linearGradient id="SVGID_1_" gradientUnits="userSpaceOnUse" x1="7.3389" y1="238.6885" x2="120.0939" y2="125.5563" gradientTransform="matrix(1 0 0 -1 14.0425 259.0508)">
	<stop  offset="0" style="stop-color:#387EB8"/>
	<stop  offset="1" style="stop-color:#366994"/>
</linearGradient>
<path fill="url(#SVGID_1_)" d="M113.195,0c-57.89,0-54.274,25.104-54.274,25.104l0.064,26.007h55.242v7.809H37.043
	c0,0-37.043-4.201-37.043,54.209s32.332,56.339,32.332,56.339h19.296v-27.105c0,0-1.04-32.332,31.816-32.332
	c32.856,0,54.791,0,54.791,0s30.783,0.496,30.783-29.751c0-30.249,0-50.015,0-50.015S173.693,0,113.195,0z M82.734,17.489
	c5.497,0,9.938,4.44,9.938,9.938c0,5.495-4.442,9.938-9.938,9.938s-9.938-4.443-9.938-9.938
	C72.796,21.93,77.238,17.489,82.734,17.489z"/>
<linearGradient id="SVGID_2_" gradientUnits="userSpaceOnUse" x1="76.6753" y1="166.6704" x2="197.7764" y2="50.6494" gradientTransform="matrix(1 0 0 -1 14.0425 259.0508)">
	<stop  offset="0" style="stop-color:#FFE052"/>
	<stop  offset="1" style="stop-color:#FFC331"/>
</linearGradient>
<path fill="url(#SVGID_2_)" d="M114.839,226.846c57.89,0,54.276-25.104,54.276-25.104l-0.064-26.008h-55.244v-7.809h77.186
	c0,0,37.043,4.201,37.043-54.209s-32.332-56.339-32.332-56.339h-19.296v27.105c0,0,1.041,32.332-31.815,32.332
	c-32.858,0-54.793,0-54.793,0s-30.783-0.498-30.783,29.751c0,30.249,0,50.015,0,50.015S54.342,226.846,114.839,226.846z
	 M145.301,209.356c-5.498,0-9.938-4.442-9.938-9.938c0-5.495,4.441-9.938,9.938-9.938c5.494,0,9.938,4.443,9.938,9.938
	C155.24,204.914,150.795,209.356,145.301,209.356z"/>
</svg>
