<svg version="1.1" id="react" xmlns="http://www.w3.org/2000/svg" xmlns:xlink="http://www.w3.org/1999/xlink" x="0px" y="0px"
	 width="600px" height="600px" viewBox="0 0 600 600" enable-background="new 0 0 600 600" xml:space="preserve">
<rect y="0" fill="#222222" width="600" height="600"/>
<circle fill="#00D8FF" cx="299.529" cy="299.628" r="50.167"/>
<path fill="none" stroke="#00D8FF" stroke-width="24" stroke-miterlimit="10" d="M299.529,197.628
	c67.356,0,129.928,9.665,177.108,25.907c56.844,19.569,91.793,49.233,91.793,76.093c0,27.991-37.041,59.504-98.082,79.729
	c-46.152,15.291-106.88,23.272-170.819,23.272c-65.554,0-127.63-7.492-174.29-23.441c-59.046-20.182-94.611-52.104-94.611-79.56
	c0-26.642,33.37-56.075,89.415-75.615C167.398,207.503,231.515,197.628,299.529,197.628z"/>
<path fill="none" stroke="#00D8FF" stroke-width="24" stroke-miterlimit="10" d="M210.736,248.922
	c33.649-58.348,73.281-107.724,110.92-140.479c45.35-39.466,88.507-54.923,111.775-41.505
	c24.248,13.982,33.041,61.813,20.066,124.796c-9.811,47.618-33.234,104.212-65.176,159.601
	c-32.75,56.788-70.25,106.819-107.377,139.272c-46.981,41.068-92.4,55.929-116.185,42.213
	c-23.079-13.31-31.906-56.921-20.834-115.232C153.281,368.316,176.758,307.841,210.736,248.922z"/>
<path fill="none" stroke="#00D8FF" stroke-width="24" stroke-miterlimit="10" d="M210.821,351.482
	c-33.746-58.292-56.731-117.287-66.312-166.255c-11.544-58.999-3.382-104.109,19.864-117.566
	c24.224-14.023,70.055,2.244,118.14,44.94c36.356,32.279,73.688,80.837,105.723,136.173
	c32.844,56.732,57.461,114.209,67.035,162.582c12.117,61.213,2.31,107.984-21.453,121.74
	c-23.057,13.348-65.248-0.784-110.238-39.499C285.567,460.886,244.898,410.344,210.821,351.482z"/>
</svg>
