<svg version="1.1" id="sass" xmlns="http://www.w3.org/2000/svg" xmlns:xlink="http://www.w3.org/1999/xlink" x="0px" y="0px"
	 width="746.689px" height="559.973px" viewBox="106.404 -0.036 746.689 559.973"
	 enable-background="new 106.404 -0.036 746.689 559.973" xml:space="preserve">
<path fill="#CD6799" d="M749.362,321.871c-26.05,0.137-48.689,6.41-67.647,15.685c-6.955-13.775-13.911-26.05-15.139-35.052
	c-1.364-10.502-3.001-16.912-1.364-29.459c1.637-12.548,9.002-30.414,8.865-31.778c-0.136-1.363-1.637-7.773-16.639-7.91
	c-15.003-0.137-27.959,2.864-29.459,6.819c-1.501,3.955-4.365,12.956-6.274,22.23c-2.591,13.639-30.005,62.329-45.689,87.833
	c-5.046-9.956-9.41-18.685-10.365-25.641c-1.363-10.502-3-16.912-1.363-29.46c1.637-12.547,9.001-30.414,8.865-31.777
	c-0.137-1.364-1.637-7.774-16.64-7.91c-15.002-0.137-27.959,2.863-29.459,6.819c-1.5,3.955-3.137,13.229-6.274,22.23
	c-3.137,9.001-39.552,90.288-49.099,111.291c-4.91,10.774-9.138,19.367-12.138,25.231l0,0c0,0-0.137,0.409-0.546,1.091
	c-2.592,5.047-4.092,7.774-4.092,7.774s0,0,0,0.136c-2.046,3.683-4.228,7.093-5.319,7.093c-0.817,0-2.318-9.82,0.273-23.186
	c5.455-28.232,18.412-72.148,18.275-73.648c0-0.818,2.455-8.456-8.456-12.411c-10.638-3.955-14.457,2.591-15.411,2.591
	c-0.955,0-1.637,2.319-1.637,2.319s11.865-49.372-22.64-49.372c-21.549,0-51.281,23.595-66.011,44.871
	c-9.274,5.046-29.051,15.82-50.19,27.413c-8.047,4.501-16.366,9.002-24.14,13.229c-0.546-0.545-1.092-1.228-1.637-1.772
	c-41.734-44.599-118.929-76.104-115.655-135.978c1.228-21.821,8.729-79.104,148.251-148.66
	c114.837-56.601,206.215-40.916,222.036-6.138c22.64,49.645-48.963,141.842-167.618,155.207
	c-45.28,5.047-69.011-12.411-75.012-18.957c-6.274-6.819-7.229-7.229-9.547-5.865c-3.819,2.046-1.364,8.184,0,11.729
	c3.546,9.274,18.139,25.641,42.824,33.688c21.822,7.092,74.876,11.047,139.114-13.775C534.281,210.58,590.472,133.249,573.97,68.466
	C557.467,2.727,448.359-18.957,345.115,17.73c-61.374,21.821-127.93,56.19-175.802,100.926
	c-56.872,53.19-65.874,99.425-62.191,118.792c13.229,68.738,108.018,113.473,145.933,146.614c-1.909,1.092-3.683,2.046-5.183,2.864
	c-18.958,9.411-91.242,47.189-109.245,87.15c-20.458,45.28,3.273,77.74,18.958,82.104c48.689,13.502,98.743-10.774,125.611-50.872
	c26.868-40.097,23.595-92.196,11.184-116.064c-0.137-0.272-0.273-0.545-0.546-0.818c4.91-2.863,9.956-5.864,14.866-8.729
	c9.684-5.728,19.23-11.047,27.413-15.411c-4.637,12.684-8.046,27.822-9.683,49.645c-2.046,25.641,8.456,58.918,22.23,72.012
	c6.138,5.728,13.366,5.864,18.003,5.864c16.094,0,23.322-13.366,31.369-29.187c9.819-19.367,18.685-41.87,18.685-41.87
	s-11.047,60.828,18.957,60.828c10.911,0,21.958-14.185,26.868-21.413c0,0.137,0,0.137,0,0.137s0.272-0.409,0.818-1.364
	c1.091-1.772,1.773-2.864,1.773-2.864s0-0.136,0-0.272c4.364-7.638,14.184-24.959,28.777-53.736
	c18.821-37.097,36.96-83.468,36.96-83.468s1.637,11.32,7.229,30.142c3.273,11.047,10.093,23.186,15.548,34.914
	c-4.364,6.138-7.092,9.547-7.092,9.547s0,0,0.137,0.137c-3.546,4.638-7.365,9.684-11.593,14.594
	c-14.866,17.729-32.597,38.052-35.052,43.916c-2.864,6.956-2.182,12.002,3.273,16.094c3.955,3,11.048,3.409,18.275,3
	c13.366-0.954,22.776-4.228,27.414-6.273c7.229-2.592,15.685-6.547,23.595-12.411c14.594-10.774,23.458-26.187,22.64-46.508
	c-0.409-11.184-4.091-22.367-8.592-32.869c1.363-1.909,2.591-3.818,3.955-5.728c23.049-33.688,40.916-70.648,40.916-70.648
	s1.637,11.32,7.228,30.142c2.729,9.547,8.32,19.912,13.23,30.005c-21.686,17.594-35.052,38.052-39.825,51.417
	c-8.593,24.822-1.909,36.006,10.774,38.598c5.729,1.228,13.911-1.5,19.912-4.092c7.638-2.455,16.64-6.683,25.231-12.957
	c14.594-10.774,28.642-25.776,27.823-46.098c-0.409-9.274-2.864-18.412-6.274-27.277c18.412-7.638,42.144-11.865,72.421-8.319
	c64.92,7.638,77.74,48.144,75.285,65.192c-2.455,17.048-16.094,26.322-20.594,29.187c-4.501,2.864-6.001,3.818-5.592,5.864
	c0.545,3.001,2.728,2.864,6.546,2.318c5.319-0.954,34.097-13.774,35.324-45.144C855.061,365.241,816.872,321.462,749.362,321.871z
	 M248.553,490.717c-21.549,23.458-51.554,32.323-64.51,24.822c-13.912-8.047-8.456-42.689,18.003-67.512
	c16.093-15.139,36.824-29.187,50.599-37.778c3.137-1.909,7.774-4.638,13.366-8.047c0.954-0.546,1.5-0.818,1.5-0.818l0,0
	c1.091-0.682,2.182-1.364,3.273-2.046C280.468,434.798,271.194,466.03,248.553,490.717z M405.397,384.062
	c-7.501,18.276-23.186,65.057-32.732,62.465c-8.183-2.182-13.229-37.643-1.637-72.693c5.865-17.594,18.275-38.598,25.504-46.78
	c11.729-13.093,24.686-17.458,27.823-12.139C428.31,321.871,410.034,372.606,405.397,384.062z M534.826,445.982
	c-3.137,1.636-6.137,2.728-7.501,1.909c-0.954-0.546,1.364-2.728,1.364-2.728s16.229-17.458,22.64-25.368
	c3.683-4.637,8.047-10.093,12.685-16.229c0,0.545,0,1.227,0,1.772C564.014,426.206,543.828,440.254,534.826,445.982z
	 M634.661,423.205c-2.318-1.636-1.909-7.092,5.864-24.14c3.001-6.683,10.093-17.867,22.23-28.642
	c1.364,4.365,2.319,8.593,2.183,12.548C664.803,409.294,645.981,419.114,634.661,423.205z"/>
</svg>